# xmcd CD database file
#
# Track frame offsets:
#	150
#	24991
#	46872
#	76227
#	117015
#	139566
#	165352
#	192639
#	213583
#
# Disc length: 3140 seconds
#
# Revision: 0
# Processed by: cddbd v1.5.2PL0 Copyright (c) Steve Scherf et al.
# Submitted via: CDex 1.51
#
DISCID=6c0c4209
DTITLE=Jean-Luc Dit sch - JLD Project
DYEAR=2007
DGENRE=Jazz
TTITLE0=Obsession
TTITLE1=Le retour du dr Loveless
TTITLE2=Chanson pour Léna
TTITLE3=Le vent
TTITLE4=Chute de cheval
TTITLE5=Vague à l'âme
TTITLE6=De guerre las
TTITLE7=Jeux d'enfants
TTITLE8=Fascination
EXTD=YEAR: 2007
EXTT0=
EXTT1=
EXTT2=
EXTT3=
EXTT4=
EXTT5=
EXTT6=
EXTT7=
EXTT8=
PLAYORDER=
